<svg version="1.1" width="154" height="274" viewBox="-1 -1 154 274" xmlns="http://www.w3.org/2000/svg" xmlns:xlink="http://www.w3.org/1999/xlink">
  <!-- Exported by Scratch - http://scratch.mit.edu/ -->
  <g id="ID0.48073363257572055" transform="matrix(1, 0, 0, 1, -138, -235)">
    <path id="ID0.3457833379507065" fill="none" stroke="#000000" stroke-width="2" stroke-linecap="round" d="M 152 268 L 151 233 " transform="matrix(1, 0, 0, 1, 0, 4)"/>
    <g id="Background_copy_xA0_Image_1_" transform="matrix(1, 0, 0, 1, 138, 253)">
      <g id="ID0.6343444571830332">
        <g id="ID0.6621233248151839">
          <path id="ID0.8487802515737712" fill="#FFFFFF" opacity="0.17" d="M 203.403 102.324 L 184.480 102.324 L 200.730 88.673 L 198.578 86.111 L 181.360 100.575 L 181.360 92.489 L 187.514 85.972 L 184.944 83.545 L 177.991 90.909 L 178.027 90.943 L 178.027 102.324 L 153.318 102.324 L 170.392 78.532 L 170.265 78.617 L 171.082 77.570 L 171.993 76.300 L 172.655 75.204 L 171.490 75.086 L 169.947 74.832 L 169.730 74.859 L 168.779 74.640 L 139.882 69.889 L 157.354 52.417 L 165.401 60.465 L 165.400 60.515 L 175.524 60.805 L 175.625 57.272 L 166.665 57.015 L 160.947 51.297 L 183.349 49.350 L 183.059 46.017 L 161.916 47.855 L 175.297 34.474 L 172.788 31.965 L 159.574 45.180 L 161.385 24.342 L 158.052 24.052 L 156.105 46.454 L 150.387 40.736 L 150.130 31.776 L 146.597 31.877 L 146.887 42.001 L 146.937 42 L 154.845 49.908 L 137.473 67.280 L 132.762 38.623 L 132.543 37.672 L 132.570 37.455 L 132.316 35.912 L 132.198 34.747 L 131.102 35.409 L 129.832 36.320 L 129.431 36.492 L 128.871 37.010 L 105.079 54.084 L 105.079 29.376 L 116.460 29.376 L 116.494 29.412 L 123.858 22.459 L 121.431 19.889 L 114.914 26.043 L 106.828 26.043 L 121.292 8.825 L 118.730 6.673 L 105.079 22.923 L 105.079 4 L 101.531 4 L 101.531 22.689 L 88.076 6.673 L 85.514 8.825 L 99.978 26.043 L 91.892 26.043 L 85.375 19.889 L 82.948 22.459 L 90.312 29.412 L 90.346 29.376 L 101.530 29.376 L 101.530 53.944 L 77.935 37.012 L 77.375 36.494 L 76.974 36.322 L 75.704 35.411 L 74.608 34.749 L 74.490 35.914 L 74.236 37.457 L 74.263 37.674 L 74.044 38.625 L 69.293 67.520 L 51.821 50.048 L 59.868 42.001 L 59.918 42.002 L 60.208 31.878 L 56.675 31.777 L 56.418 40.737 L 50.700 46.455 L 48.753 24.053 L 45.420 24.343 L 47.258 45.486 L 33.877 32.104 L 31.368 34.613 L 44.583 47.828 L 23.745 46.017 L 23.455 49.350 L 45.857 51.297 L 40.139 57.015 L 31.179 57.272 L 31.280 60.805 L 41.404 60.515 L 41.403 60.465 L 49.311 52.557 L 66.683 69.929 L 38.026 74.640 L 37.075 74.859 L 36.858 74.832 L 35.315 75.086 L 34.150 75.204 L 34.812 76.300 L 35.724 77.570 L 36.541 78.617 L 36.414 78.532 L 53.488 102.324 L 28.779 102.324 L 28.779 90.943 L 28.815 90.909 L 21.862 83.545 L 19.292 85.972 L 25.446 92.489 L 25.446 100.575 L 8.228 86.112 L 6.076 88.674 L 22.326 102.325 L 3.403 102.325 L 3.403 105.873 L 22.092 105.873 L 6.076 119.327 L 8.228 121.889 L 25.446 107.425 L 25.446 115.511 L 19.292 122.028 L 21.862 124.455 L 28.815 117.091 L 28.779 117.057 L 28.779 105.873 L 53.347 105.873 L 36.415 129.468 L 35.897 130.028 L 35.725 130.429 L 34.813 131.699 L 34.151 132.795 L 35.316 132.913 L 36.859 133.167 L 37.076 133.140 L 38.027 133.359 L 66.684 138.070 L 49.312 155.442 L 41.404 147.534 L 41.405 147.484 L 31.281 147.194 L 31.180 150.727 L 40.140 150.984 L 45.858 156.702 L 23.456 158.649 L 23.746 161.982 L 44.584 160.171 L 31.369 173.386 L 33.878 175.895 L 47.259 162.514 L 45.421 183.657 L 48.754 183.947 L 50.701 161.545 L 56.419 167.263 L 56.676 176.223 L 60.209 176.122 L 59.919 165.998 L 59.869 165.999 L 51.822 157.951 L 69.294 140.479 L 74.045 169.376 L 74.264 170.327 L 74.237 170.544 L 74.491 172.087 L 74.609 173.252 L 75.705 172.590 L 76.975 171.679 L 77.376 171.507 L 77.936 170.989 L 101.531 154.057 L 101.531 178.625 L 90.346 178.625 L 90.312 178.589 L 82.948 185.542 L 85.375 188.112 L 91.892 181.958 L 99.978 181.958 L 85.514 199.176 L 88.076 201.328 L 101.530 185.313 L 101.530 204 L 105.078 204 L 105.078 185.077 L 118.729 201.327 L 121.291 199.175 L 106.827 181.957 L 114.913 181.957 L 121.430 188.111 L 123.857 185.541 L 116.493 178.588 L 116.459 178.624 L 105.078 178.624 L 105.078 153.915 L 128.870 170.989 L 129.430 171.507 L 129.831 171.679 L 131.101 172.590 L 132.197 173.252 L 132.315 172.087 L 132.569 170.544 L 132.542 170.327 L 132.761 169.376 L 137.472 140.719 L 154.844 158.091 L 146.936 165.999 L 146.886 165.998 L 146.596 176.122 L 150.129 176.223 L 150.386 167.263 L 156.104 161.545 L 158.051 183.947 L 161.384 183.657 L 159.573 162.819 L 172.788 176.034 L 175.297 173.525 L 161.916 160.144 L 183.059 161.982 L 183.349 158.649 L 160.947 156.702 L 166.665 150.984 L 175.625 150.727 L 175.524 147.194 L 165.400 147.484 L 165.401 147.534 L 157.354 155.582 L 139.882 138.110 L 168.779 133.359 L 169.730 133.140 L 169.947 133.167 L 171.490 132.913 L 172.655 132.795 L 171.993 131.699 L 171.082 130.429 L 170.910 130.028 L 170.392 129.468 L 153.460 105.873 L 178.028 105.873 L 178.028 117.057 L 177.992 117.091 L 184.945 124.455 L 187.515 122.028 L 181.361 115.511 L 181.361 107.425 L 198.579 121.889 L 200.731 119.327 L 184.716 105.873 L 203.405 105.873 L 203.405 102.324 Z M 166.451 77.884 L 148.912 102.324 L 120.099 102.324 L 134.950 92.998 L 135.959 92.767 L 140.035 98.861 L 142.741 97.051 L 137.846 89.732 L 136.132 81.095 L 132.939 81.729 L 134.366 88.920 L 133.489 89.471 L 116.394 93.378 L 136.768 73.004 L 166.451 77.884 Z M 111.596 98.336 L 123.824 95.542 L 113.202 102.212 L 113.273 102.325 L 113.081 102.325 L 107.449 102.325 L 111.431 98.343 L 111.431 98.343 L 111.567 98.207 L 111.596 98.336 Z M 108.921 95.833 L 108.921 95.833 L 105.078 99.676 L 105.078 94.323 L 105.078 94.130 L 105.191 94.201 L 111.861 83.579 L 109.102 95.652 L 108.921 95.833 Z M 101.530 94.323 L 101.530 99.758 L 97.609 95.837 L 97.739 95.807 L 94.945 83.579 L 101.531 94.067 L 101.531 94.323 Z M 99.079 102.324 L 93.726 102.324 L 93.534 102.324 L 93.605 102.211 L 82.983 95.541 L 95.055 98.300 L 99.079 102.324 Z M 93.725 105.873 L 98.881 105.873 L 95.054 109.700 L 82.981 112.459 L 93.469 105.873 L 93.725 105.873 Z M 101.530 108.242 L 101.530 113.677 L 101.530 113.933 L 94.944 124.421 L 97.738 112.193 L 97.608 112.163 L 101.530 108.242 Z M 105.078 113.677 L 105.078 108.324 L 108.921 112.167 L 108.921 112.167 L 109.102 112.348 L 111.861 124.421 L 105.191 113.799 L 105.078 113.870 L 105.078 113.677 Z M 111.567 109.794 L 111.431 109.658 L 111.431 109.658 L 107.646 105.873 L 113.081 105.873 L 113.337 105.873 L 123.825 112.459 L 111.597 109.665 L 111.567 109.794 Z M 129.518 40.952 L 134.359 70.396 L 114.107 90.648 L 117.931 73.914 L 118.482 73.037 L 125.673 74.464 L 126.307 71.271 L 117.670 69.557 L 110.351 64.662 L 108.541 67.368 L 114.635 71.444 L 114.404 72.453 L 105.078 87.304 L 105.078 58.490 L 129.518 40.952 Z M 77.287 40.952 L 101.530 58.349 L 101.530 86.990 L 92.401 72.453 L 92.170 71.444 L 98.264 67.368 L 96.454 64.662 L 89.135 69.557 L 80.498 71.271 L 81.132 74.464 L 88.323 73.037 L 88.874 73.914 L 92.781 91.009 L 72.407 70.635 L 77.287 40.952 Z M 40.354 77.884 L 69.798 73.043 L 90.050 93.295 L 73.316 89.471 L 72.439 88.920 L 73.866 81.729 L 70.673 81.095 L 68.959 89.732 L 64.064 97.051 L 66.770 98.861 L 70.846 92.767 L 71.855 92.998 L 86.706 102.324 L 57.893 102.324 L 40.354 77.884 Z M 40.354 130.116 L 57.751 105.873 L 86.392 105.873 L 71.855 115.002 L 70.846 115.233 L 66.770 109.139 L 64.064 110.949 L 68.959 118.268 L 70.673 126.905 L 73.866 126.271 L 72.439 119.080 L 73.316 118.529 L 90.050 114.705 L 69.798 134.957 L 40.354 130.116 Z M 77.287 167.048 L 72.407 137.365 L 92.781 116.991 L 88.874 134.086 L 88.323 134.963 L 81.132 133.536 L 80.498 136.729 L 89.135 138.443 L 96.454 143.338 L 98.264 140.632 L 92.170 136.556 L 92.401 135.547 L 101.530 121.010 L 101.530 149.651 L 77.287 167.048 Z M 129.518 167.048 L 105.078 149.509 L 105.078 120.696 L 114.404 135.547 L 114.635 136.556 L 108.541 140.632 L 110.351 143.338 L 117.670 138.443 L 126.307 136.729 L 125.673 133.536 L 118.482 134.963 L 117.931 134.086 L 114.107 117.352 L 134.359 137.604 L 129.518 167.048 Z M 166.451 130.116 L 136.768 134.996 L 116.394 114.622 L 133.489 118.529 L 134.366 119.080 L 132.939 126.271 L 136.132 126.905 L 137.846 118.268 L 142.741 110.949 L 140.035 109.139 L 135.959 115.233 L 134.950 115.002 L 120.413 105.873 L 149.054 105.873 L 166.451 130.116 Z " transform="matrix(0.13930347561836243, 0, 0, 0.13930347561836243, -0.3, -0.4)"/>
          <path id="ID0.8670337367802858" fill="none" stroke="#FFFFFF" opacity="0.17" d="M 203.403 102.324 L 184.480 102.324 L 200.730 88.673 L 198.578 86.111 L 181.360 100.575 L 181.360 92.489 L 187.514 85.972 L 184.944 83.545 L 177.991 90.909 L 178.027 90.943 L 178.027 102.324 L 153.318 102.324 L 170.392 78.532 L 170.265 78.617 L 171.082 77.570 L 171.993 76.300 L 172.655 75.204 L 171.490 75.086 L 169.947 74.832 L 169.730 74.859 L 168.779 74.640 L 139.882 69.889 L 157.354 52.417 L 165.401 60.465 L 165.400 60.515 L 175.524 60.805 L 175.625 57.272 L 166.665 57.015 L 160.947 51.297 L 183.349 49.350 L 183.059 46.017 L 161.916 47.855 L 175.297 34.474 L 172.788 31.965 L 159.574 45.180 L 161.385 24.342 L 158.052 24.052 L 156.105 46.454 L 150.387 40.736 L 150.130 31.776 L 146.597 31.877 L 146.887 42.001 L 146.937 42 L 154.845 49.908 L 137.473 67.280 L 132.762 38.623 L 132.543 37.672 L 132.570 37.455 L 132.316 35.912 L 132.198 34.747 L 131.102 35.409 L 129.832 36.320 L 129.431 36.492 L 128.871 37.010 L 105.079 54.084 L 105.079 29.376 L 116.460 29.376 L 116.494 29.412 L 123.858 22.459 L 121.431 19.889 L 114.914 26.043 L 106.828 26.043 L 121.292 8.825 L 118.730 6.673 L 105.079 22.923 L 105.079 4 L 101.531 4 L 101.531 22.689 L 88.076 6.673 L 85.514 8.825 L 99.978 26.043 L 91.892 26.043 L 85.375 19.889 L 82.948 22.459 L 90.312 29.412 L 90.346 29.376 L 101.530 29.376 L 101.530 53.944 L 77.935 37.012 L 77.375 36.494 L 76.974 36.322 L 75.704 35.411 L 74.608 34.749 L 74.490 35.914 L 74.236 37.457 L 74.263 37.674 L 74.044 38.625 L 69.293 67.520 L 51.821 50.048 L 59.868 42.001 L 59.918 42.002 L 60.208 31.878 L 56.675 31.777 L 56.418 40.737 L 50.700 46.455 L 48.753 24.053 L 45.420 24.343 L 47.258 45.486 L 33.877 32.104 L 31.368 34.613 L 44.583 47.828 L 23.745 46.017 L 23.455 49.350 L 45.857 51.297 L 40.139 57.015 L 31.179 57.272 L 31.280 60.805 L 41.404 60.515 L 41.403 60.465 L 49.311 52.557 L 66.683 69.929 L 38.026 74.640 L 37.075 74.859 L 36.858 74.832 L 35.315 75.086 L 34.150 75.204 L 34.812 76.300 L 35.724 77.570 L 36.541 78.617 L 36.414 78.532 L 53.488 102.324 L 28.779 102.324 L 28.779 90.943 L 28.815 90.909 L 21.862 83.545 L 19.292 85.972 L 25.446 92.489 L 25.446 100.575 L 8.228 86.112 L 6.076 88.674 L 22.326 102.325 L 3.403 102.325 L 3.403 105.873 L 22.092 105.873 L 6.076 119.327 L 8.228 121.889 L 25.446 107.425 L 25.446 115.511 L 19.292 122.028 L 21.862 124.455 L 28.815 117.091 L 28.779 117.057 L 28.779 105.873 L 53.347 105.873 L 36.415 129.468 L 35.897 130.028 L 35.725 130.429 L 34.813 131.699 L 34.151 132.795 L 35.316 132.913 L 36.859 133.167 L 37.076 133.140 L 38.027 133.359 L 66.684 138.070 L 49.312 155.442 L 41.404 147.534 L 41.405 147.484 L 31.281 147.194 L 31.180 150.727 L 40.140 150.984 L 45.858 156.702 L 23.456 158.649 L 23.746 161.982 L 44.584 160.171 L 31.369 173.386 L 33.878 175.895 L 47.259 162.514 L 45.421 183.657 L 48.754 183.947 L 50.701 161.545 L 56.419 167.263 L 56.676 176.223 L 60.209 176.122 L 59.919 165.998 L 59.869 165.999 L 51.822 157.951 L 69.294 140.479 L 74.045 169.376 L 74.264 170.327 L 74.237 170.544 L 74.491 172.087 L 74.609 173.252 L 75.705 172.590 L 76.975 171.679 L 77.376 171.507 L 77.936 170.989 L 101.531 154.057 L 101.531 178.625 L 90.346 178.625 L 90.312 178.589 L 82.948 185.542 L 85.375 188.112 L 91.892 181.958 L 99.978 181.958 L 85.514 199.176 L 88.076 201.328 L 101.530 185.313 L 101.530 204 L 105.078 204 L 105.078 185.077 L 118.729 201.327 L 121.291 199.175 L 106.827 181.957 L 114.913 181.957 L 121.430 188.111 L 123.857 185.541 L 116.493 178.588 L 116.459 178.624 L 105.078 178.624 L 105.078 153.915 L 128.870 170.989 L 129.430 171.507 L 129.831 171.679 L 131.101 172.590 L 132.197 173.252 L 132.315 172.087 L 132.569 170.544 L 132.542 170.327 L 132.761 169.376 L 137.472 140.719 L 154.844 158.091 L 146.936 165.999 L 146.886 165.998 L 146.596 176.122 L 150.129 176.223 L 150.386 167.263 L 156.104 161.545 L 158.051 183.947 L 161.384 183.657 L 159.573 162.819 L 172.788 176.034 L 175.297 173.525 L 161.916 160.144 L 183.059 161.982 L 183.349 158.649 L 160.947 156.702 L 166.665 150.984 L 175.625 150.727 L 175.524 147.194 L 165.400 147.484 L 165.401 147.534 L 157.354 155.582 L 139.882 138.110 L 168.779 133.359 L 169.730 133.140 L 169.947 133.167 L 171.490 132.913 L 172.655 132.795 L 171.993 131.699 L 171.082 130.429 L 170.910 130.028 L 170.392 129.468 L 153.460 105.873 L 178.028 105.873 L 178.028 117.057 L 177.992 117.091 L 184.945 124.455 L 187.515 122.028 L 181.361 115.511 L 181.361 107.425 L 198.579 121.889 L 200.731 119.327 L 184.716 105.873 L 203.405 105.873 L 203.405 102.324 Z M 166.451 77.884 L 148.912 102.324 L 120.099 102.324 L 134.950 92.998 L 135.959 92.767 L 140.035 98.861 L 142.741 97.051 L 137.846 89.732 L 136.132 81.095 L 132.939 81.729 L 134.366 88.920 L 133.489 89.471 L 116.394 93.378 L 136.768 73.004 L 166.451 77.884 Z M 111.596 98.336 L 123.824 95.542 L 113.202 102.212 L 113.273 102.325 L 113.081 102.325 L 107.449 102.325 L 111.431 98.343 L 111.431 98.343 L 111.567 98.207 L 111.596 98.336 Z M 108.921 95.833 L 108.921 95.833 L 105.078 99.676 L 105.078 94.323 L 105.078 94.130 L 105.191 94.201 L 111.861 83.579 L 109.102 95.652 L 108.921 95.833 Z M 101.530 94.323 L 101.530 99.758 L 97.609 95.837 L 97.739 95.807 L 94.945 83.579 L 101.531 94.067 L 101.531 94.323 Z M 99.079 102.324 L 93.726 102.324 L 93.534 102.324 L 93.605 102.211 L 82.983 95.541 L 95.055 98.300 L 99.079 102.324 Z M 93.725 105.873 L 98.881 105.873 L 95.054 109.700 L 82.981 112.459 L 93.469 105.873 L 93.725 105.873 Z M 101.530 108.242 L 101.530 113.677 L 101.530 113.933 L 94.944 124.421 L 97.738 112.193 L 97.608 112.163 L 101.530 108.242 Z M 105.078 113.677 L 105.078 108.324 L 108.921 112.167 L 108.921 112.167 L 109.102 112.348 L 111.861 124.421 L 105.191 113.799 L 105.078 113.870 L 105.078 113.677 Z M 111.567 109.794 L 111.431 109.658 L 111.431 109.658 L 107.646 105.873 L 113.081 105.873 L 113.337 105.873 L 123.825 112.459 L 111.597 109.665 L 111.567 109.794 Z M 129.518 40.952 L 134.359 70.396 L 114.107 90.648 L 117.931 73.914 L 118.482 73.037 L 125.673 74.464 L 126.307 71.271 L 117.670 69.557 L 110.351 64.662 L 108.541 67.368 L 114.635 71.444 L 114.404 72.453 L 105.078 87.304 L 105.078 58.490 L 129.518 40.952 Z M 77.287 40.952 L 101.530 58.349 L 101.530 86.990 L 92.401 72.453 L 92.170 71.444 L 98.264 67.368 L 96.454 64.662 L 89.135 69.557 L 80.498 71.271 L 81.132 74.464 L 88.323 73.037 L 88.874 73.914 L 92.781 91.009 L 72.407 70.635 L 77.287 40.952 Z M 40.354 77.884 L 69.798 73.043 L 90.050 93.295 L 73.316 89.471 L 72.439 88.920 L 73.866 81.729 L 70.673 81.095 L 68.959 89.732 L 64.064 97.051 L 66.770 98.861 L 70.846 92.767 L 71.855 92.998 L 86.706 102.324 L 57.893 102.324 L 40.354 77.884 Z M 40.354 130.116 L 57.751 105.873 L 86.392 105.873 L 71.855 115.002 L 70.846 115.233 L 66.770 109.139 L 64.064 110.949 L 68.959 118.268 L 70.673 126.905 L 73.866 126.271 L 72.439 119.080 L 73.316 118.529 L 90.050 114.705 L 69.798 134.957 L 40.354 130.116 Z M 77.287 167.048 L 72.407 137.365 L 92.781 116.991 L 88.874 134.086 L 88.323 134.963 L 81.132 133.536 L 80.498 136.729 L 89.135 138.443 L 96.454 143.338 L 98.264 140.632 L 92.170 136.556 L 92.401 135.547 L 101.530 121.010 L 101.530 149.651 L 77.287 167.048 Z M 129.518 167.048 L 105.078 149.509 L 105.078 120.696 L 114.404 135.547 L 114.635 136.556 L 108.541 140.632 L 110.351 143.338 L 117.670 138.443 L 126.307 136.729 L 125.673 133.536 L 118.482 134.963 L 117.931 134.086 L 114.107 117.352 L 134.359 137.604 L 129.518 167.048 Z M 166.451 130.116 L 136.768 134.996 L 116.394 114.622 L 133.489 118.529 L 134.366 119.080 L 132.939 126.271 L 136.132 126.905 L 137.846 118.268 L 142.741 110.949 L 140.035 109.139 L 135.959 115.233 L 134.950 115.002 L 120.413 105.873 L 149.054 105.873 L 166.451 130.116 Z " transform="matrix(0.13930347561836243, 0, 0, 0.13930347561836243, -0.3, -0.4)"/>
        </g>
        <g id="ID0.15814112732186913">
          <path id="ID0.9808527478016913" fill="#BEE4FA" d="M 203.403 102.324 L 184.480 102.324 L 200.730 88.673 L 198.578 86.111 L 181.360 100.575 L 181.360 92.489 L 187.514 85.972 L 184.944 83.545 L 177.991 90.909 L 178.027 90.943 L 178.027 102.324 L 153.318 102.324 L 170.392 78.532 L 170.265 78.617 L 171.082 77.570 L 171.993 76.300 L 172.655 75.204 L 171.490 75.086 L 169.947 74.832 L 169.730 74.859 L 168.779 74.640 L 139.882 69.889 L 157.354 52.417 L 165.401 60.465 L 165.400 60.515 L 175.524 60.805 L 175.625 57.272 L 166.665 57.015 L 160.947 51.297 L 183.349 49.350 L 183.059 46.017 L 161.916 47.855 L 175.297 34.474 L 172.788 31.965 L 159.574 45.180 L 161.385 24.342 L 158.052 24.052 L 156.105 46.454 L 150.387 40.736 L 150.130 31.776 L 146.597 31.877 L 146.887 42.001 L 146.937 42 L 154.845 49.908 L 137.473 67.280 L 132.762 38.623 L 132.543 37.672 L 132.570 37.455 L 132.316 35.912 L 132.198 34.747 L 131.102 35.409 L 129.832 36.320 L 129.431 36.492 L 128.871 37.010 L 105.079 54.084 L 105.079 29.376 L 116.460 29.376 L 116.494 29.412 L 123.858 22.459 L 121.431 19.889 L 114.914 26.043 L 106.828 26.043 L 121.292 8.825 L 118.730 6.673 L 105.079 22.923 L 105.079 4 L 101.531 4 L 101.531 22.689 L 88.076 6.673 L 85.514 8.825 L 99.978 26.043 L 91.892 26.043 L 85.375 19.889 L 82.948 22.459 L 90.312 29.412 L 90.346 29.376 L 101.530 29.376 L 101.530 53.944 L 77.935 37.012 L 77.375 36.494 L 76.974 36.322 L 75.704 35.411 L 74.608 34.749 L 74.490 35.914 L 74.236 37.457 L 74.263 37.674 L 74.044 38.625 L 69.293 67.520 L 51.821 50.048 L 59.868 42.001 L 59.918 42.002 L 60.208 31.878 L 56.675 31.777 L 56.418 40.737 L 50.700 46.455 L 48.753 24.053 L 45.420 24.343 L 47.258 45.486 L 33.877 32.104 L 31.368 34.613 L 44.583 47.828 L 23.745 46.017 L 23.455 49.350 L 45.857 51.297 L 40.139 57.015 L 31.179 57.272 L 31.280 60.805 L 41.404 60.515 L 41.403 60.465 L 49.311 52.557 L 66.683 69.929 L 38.026 74.640 L 37.075 74.859 L 36.858 74.832 L 35.315 75.086 L 34.150 75.204 L 34.812 76.300 L 35.724 77.570 L 36.541 78.617 L 36.414 78.532 L 53.488 102.324 L 28.779 102.324 L 28.779 90.943 L 28.815 90.909 L 21.862 83.545 L 19.292 85.972 L 25.446 92.489 L 25.446 100.575 L 8.228 86.112 L 6.076 88.674 L 22.326 102.325 L 3.403 102.325 L 3.403 105.873 L 22.092 105.873 L 6.076 119.327 L 8.228 121.889 L 25.446 107.425 L 25.446 115.511 L 19.292 122.028 L 21.862 124.455 L 28.815 117.091 L 28.779 117.057 L 28.779 105.873 L 53.347 105.873 L 36.415 129.468 L 35.897 130.028 L 35.725 130.429 L 34.813 131.699 L 34.151 132.795 L 35.316 132.913 L 36.859 133.167 L 37.076 133.140 L 38.027 133.359 L 66.684 138.070 L 49.312 155.442 L 41.404 147.534 L 41.405 147.484 L 31.281 147.194 L 31.180 150.727 L 40.140 150.984 L 45.858 156.702 L 23.456 158.649 L 23.746 161.982 L 44.584 160.171 L 31.369 173.386 L 33.878 175.895 L 47.259 162.514 L 45.421 183.657 L 48.754 183.947 L 50.701 161.545 L 56.419 167.263 L 56.676 176.223 L 60.209 176.122 L 59.919 165.998 L 59.869 165.999 L 51.822 157.951 L 69.294 140.479 L 74.045 169.376 L 74.264 170.327 L 74.237 170.544 L 74.491 172.087 L 74.609 173.252 L 75.705 172.590 L 76.975 171.679 L 77.376 171.507 L 77.936 170.989 L 101.531 154.057 L 101.531 178.625 L 90.346 178.625 L 90.312 178.589 L 82.948 185.542 L 85.375 188.112 L 91.892 181.958 L 99.978 181.958 L 85.514 199.176 L 88.076 201.328 L 101.530 185.313 L 101.530 204 L 105.078 204 L 105.078 185.077 L 118.729 201.327 L 121.291 199.175 L 106.827 181.957 L 114.913 181.957 L 121.430 188.111 L 123.857 185.541 L 116.493 178.588 L 116.459 178.624 L 105.078 178.624 L 105.078 153.915 L 128.870 170.989 L 129.430 171.507 L 129.831 171.679 L 131.101 172.590 L 132.197 173.252 L 132.315 172.087 L 132.569 170.544 L 132.542 170.327 L 132.761 169.376 L 137.472 140.719 L 154.844 158.091 L 146.936 165.999 L 146.886 165.998 L 146.596 176.122 L 150.129 176.223 L 150.386 167.263 L 156.104 161.545 L 158.051 183.947 L 161.384 183.657 L 159.573 162.819 L 172.788 176.034 L 175.297 173.525 L 161.916 160.144 L 183.059 161.982 L 183.349 158.649 L 160.947 156.702 L 166.665 150.984 L 175.625 150.727 L 175.524 147.194 L 165.400 147.484 L 165.401 147.534 L 157.354 155.582 L 139.882 138.110 L 168.779 133.359 L 169.730 133.140 L 169.947 133.167 L 171.490 132.913 L 172.655 132.795 L 171.993 131.699 L 171.082 130.429 L 170.910 130.028 L 170.392 129.468 L 153.460 105.873 L 178.028 105.873 L 178.028 117.057 L 177.992 117.091 L 184.945 124.455 L 187.515 122.028 L 181.361 115.511 L 181.361 107.425 L 198.579 121.889 L 200.731 119.327 L 184.716 105.873 L 203.405 105.873 L 203.405 102.324 Z M 166.451 77.884 L 148.912 102.324 L 120.099 102.324 L 134.950 92.998 L 135.959 92.767 L 140.035 98.861 L 142.741 97.051 L 137.846 89.732 L 136.132 81.095 L 132.939 81.729 L 134.366 88.920 L 133.489 89.471 L 116.394 93.378 L 136.768 73.004 L 166.451 77.884 Z M 111.596 98.336 L 123.824 95.542 L 113.202 102.212 L 113.273 102.325 L 113.081 102.325 L 107.449 102.325 L 111.431 98.343 L 111.431 98.343 L 111.567 98.207 L 111.596 98.336 Z M 108.921 95.833 L 108.921 95.833 L 105.078 99.676 L 105.078 94.323 L 105.078 94.130 L 105.191 94.201 L 111.861 83.579 L 109.102 95.652 L 108.921 95.833 Z M 101.530 94.323 L 101.530 99.758 L 97.609 95.837 L 97.739 95.807 L 94.945 83.579 L 101.531 94.067 L 101.531 94.323 Z M 99.079 102.324 L 93.726 102.324 L 93.534 102.324 L 93.605 102.211 L 82.983 95.541 L 95.055 98.300 L 99.079 102.324 Z M 93.725 105.873 L 98.881 105.873 L 95.054 109.700 L 82.981 112.459 L 93.469 105.873 L 93.725 105.873 Z M 101.530 108.242 L 101.530 113.677 L 101.530 113.933 L 94.944 124.421 L 97.738 112.193 L 97.608 112.163 L 101.530 108.242 Z M 105.078 113.677 L 105.078 108.324 L 108.921 112.167 L 108.921 112.167 L 109.102 112.348 L 111.861 124.421 L 105.191 113.799 L 105.078 113.870 L 105.078 113.677 Z M 111.567 109.794 L 111.431 109.658 L 111.431 109.658 L 107.646 105.873 L 113.081 105.873 L 113.337 105.873 L 123.825 112.459 L 111.597 109.665 L 111.567 109.794 Z M 129.518 40.952 L 134.359 70.396 L 114.107 90.648 L 117.931 73.914 L 118.482 73.037 L 125.673 74.464 L 126.307 71.271 L 117.670 69.557 L 110.351 64.662 L 108.541 67.368 L 114.635 71.444 L 114.404 72.453 L 105.078 87.304 L 105.078 58.490 L 129.518 40.952 Z M 77.287 40.952 L 101.530 58.349 L 101.530 86.990 L 92.401 72.453 L 92.170 71.444 L 98.264 67.368 L 96.454 64.662 L 89.135 69.557 L 80.498 71.271 L 81.132 74.464 L 88.323 73.037 L 88.874 73.914 L 92.781 91.009 L 72.407 70.635 L 77.287 40.952 Z M 40.354 77.884 L 69.798 73.043 L 90.050 93.295 L 73.316 89.471 L 72.439 88.920 L 73.866 81.729 L 70.673 81.095 L 68.959 89.732 L 64.064 97.051 L 66.770 98.861 L 70.846 92.767 L 71.855 92.998 L 86.706 102.324 L 57.893 102.324 L 40.354 77.884 Z M 40.354 130.116 L 57.751 105.873 L 86.392 105.873 L 71.855 115.002 L 70.846 115.233 L 66.770 109.139 L 64.064 110.949 L 68.959 118.268 L 70.673 126.905 L 73.866 126.271 L 72.439 119.080 L 73.316 118.529 L 90.050 114.705 L 69.798 134.957 L 40.354 130.116 Z M 77.287 167.048 L 72.407 137.365 L 92.781 116.991 L 88.874 134.086 L 88.323 134.963 L 81.132 133.536 L 80.498 136.729 L 89.135 138.443 L 96.454 143.338 L 98.264 140.632 L 92.170 136.556 L 92.401 135.547 L 101.530 121.010 L 101.530 149.651 L 77.287 167.048 Z M 129.518 167.048 L 105.078 149.509 L 105.078 120.696 L 114.404 135.547 L 114.635 136.556 L 108.541 140.632 L 110.351 143.338 L 117.670 138.443 L 126.307 136.729 L 125.673 133.536 L 118.482 134.963 L 117.931 134.086 L 114.107 117.352 L 134.359 137.604 L 129.518 167.048 Z M 166.451 130.116 L 136.768 134.996 L 116.394 114.622 L 133.489 118.529 L 134.366 119.080 L 132.939 126.271 L 136.132 126.905 L 137.846 118.268 L 142.741 110.949 L 140.035 109.139 L 135.959 115.233 L 134.950 115.002 L 120.413 105.873 L 149.054 105.873 L 166.451 130.116 Z " transform="matrix(0.13930347561836243, 0, 0, 0.13930347561836243, -0.3, -0.4)"/>
          <path id="ID0.9485409162007272" fill="none" stroke="#4BB4F0" d="M 203.403 102.324 L 184.480 102.324 L 200.730 88.673 L 198.578 86.111 L 181.360 100.575 L 181.360 92.489 L 187.514 85.972 L 184.944 83.545 L 177.991 90.909 L 178.027 90.943 L 178.027 102.324 L 153.318 102.324 L 170.392 78.532 L 170.265 78.617 L 171.082 77.570 L 171.993 76.300 L 172.655 75.204 L 171.490 75.086 L 169.947 74.832 L 169.730 74.859 L 168.779 74.640 L 139.882 69.889 L 157.354 52.417 L 165.401 60.465 L 165.400 60.515 L 175.524 60.805 L 175.625 57.272 L 166.665 57.015 L 160.947 51.297 L 183.349 49.350 L 183.059 46.017 L 161.916 47.855 L 175.297 34.474 L 172.788 31.965 L 159.574 45.180 L 161.385 24.342 L 158.052 24.052 L 156.105 46.454 L 150.387 40.736 L 150.130 31.776 L 146.597 31.877 L 146.887 42.001 L 146.937 42 L 154.845 49.908 L 137.473 67.280 L 132.762 38.623 L 132.543 37.672 L 132.570 37.455 L 132.316 35.912 L 132.198 34.747 L 131.102 35.409 L 129.832 36.320 L 129.431 36.492 L 128.871 37.010 L 105.079 54.084 L 105.079 29.376 L 116.460 29.376 L 116.494 29.412 L 123.858 22.459 L 121.431 19.889 L 114.914 26.043 L 106.828 26.043 L 121.292 8.825 L 118.730 6.673 L 105.079 22.923 L 105.079 4 L 101.531 4 L 101.531 22.689 L 88.076 6.673 L 85.514 8.825 L 99.978 26.043 L 91.892 26.043 L 85.375 19.889 L 82.948 22.459 L 90.312 29.412 L 90.346 29.376 L 101.530 29.376 L 101.530 53.944 L 77.935 37.012 L 77.375 36.494 L 76.974 36.322 L 75.704 35.411 L 74.608 34.749 L 74.490 35.914 L 74.236 37.457 L 74.263 37.674 L 74.044 38.625 L 69.293 67.520 L 51.821 50.048 L 59.868 42.001 L 59.918 42.002 L 60.208 31.878 L 56.675 31.777 L 56.418 40.737 L 50.700 46.455 L 48.753 24.053 L 45.420 24.343 L 47.258 45.486 L 33.877 32.104 L 31.368 34.613 L 44.583 47.828 L 23.745 46.017 L 23.455 49.350 L 45.857 51.297 L 40.139 57.015 L 31.179 57.272 L 31.280 60.805 L 41.404 60.515 L 41.403 60.465 L 49.311 52.557 L 66.683 69.929 L 38.026 74.640 L 37.075 74.859 L 36.858 74.832 L 35.315 75.086 L 34.150 75.204 L 34.812 76.300 L 35.724 77.570 L 36.541 78.617 L 36.414 78.532 L 53.488 102.324 L 28.779 102.324 L 28.779 90.943 L 28.815 90.909 L 21.862 83.545 L 19.292 85.972 L 25.446 92.489 L 25.446 100.575 L 8.228 86.112 L 6.076 88.674 L 22.326 102.325 L 3.403 102.325 L 3.403 105.873 L 22.092 105.873 L 6.076 119.327 L 8.228 121.889 L 25.446 107.425 L 25.446 115.511 L 19.292 122.028 L 21.862 124.455 L 28.815 117.091 L 28.779 117.057 L 28.779 105.873 L 53.347 105.873 L 36.415 129.468 L 35.897 130.028 L 35.725 130.429 L 34.813 131.699 L 34.151 132.795 L 35.316 132.913 L 36.859 133.167 L 37.076 133.140 L 38.027 133.359 L 66.684 138.070 L 49.312 155.442 L 41.404 147.534 L 41.405 147.484 L 31.281 147.194 L 31.180 150.727 L 40.140 150.984 L 45.858 156.702 L 23.456 158.649 L 23.746 161.982 L 44.584 160.171 L 31.369 173.386 L 33.878 175.895 L 47.259 162.514 L 45.421 183.657 L 48.754 183.947 L 50.701 161.545 L 56.419 167.263 L 56.676 176.223 L 60.209 176.122 L 59.919 165.998 L 59.869 165.999 L 51.822 157.951 L 69.294 140.479 L 74.045 169.376 L 74.264 170.327 L 74.237 170.544 L 74.491 172.087 L 74.609 173.252 L 75.705 172.590 L 76.975 171.679 L 77.376 171.507 L 77.936 170.989 L 101.531 154.057 L 101.531 178.625 L 90.346 178.625 L 90.312 178.589 L 82.948 185.542 L 85.375 188.112 L 91.892 181.958 L 99.978 181.958 L 85.514 199.176 L 88.076 201.328 L 101.530 185.313 L 101.530 204 L 105.078 204 L 105.078 185.077 L 118.729 201.327 L 121.291 199.175 L 106.827 181.957 L 114.913 181.957 L 121.430 188.111 L 123.857 185.541 L 116.493 178.588 L 116.459 178.624 L 105.078 178.624 L 105.078 153.915 L 128.870 170.989 L 129.430 171.507 L 129.831 171.679 L 131.101 172.590 L 132.197 173.252 L 132.315 172.087 L 132.569 170.544 L 132.542 170.327 L 132.761 169.376 L 137.472 140.719 L 154.844 158.091 L 146.936 165.999 L 146.886 165.998 L 146.596 176.122 L 150.129 176.223 L 150.386 167.263 L 156.104 161.545 L 158.051 183.947 L 161.384 183.657 L 159.573 162.819 L 172.788 176.034 L 175.297 173.525 L 161.916 160.144 L 183.059 161.982 L 183.349 158.649 L 160.947 156.702 L 166.665 150.984 L 175.625 150.727 L 175.524 147.194 L 165.400 147.484 L 165.401 147.534 L 157.354 155.582 L 139.882 138.110 L 168.779 133.359 L 169.730 133.140 L 169.947 133.167 L 171.490 132.913 L 172.655 132.795 L 171.993 131.699 L 171.082 130.429 L 170.910 130.028 L 170.392 129.468 L 153.460 105.873 L 178.028 105.873 L 178.028 117.057 L 177.992 117.091 L 184.945 124.455 L 187.515 122.028 L 181.361 115.511 L 181.361 107.425 L 198.579 121.889 L 200.731 119.327 L 184.716 105.873 L 203.405 105.873 L 203.405 102.324 Z M 166.451 77.884 L 148.912 102.324 L 120.099 102.324 L 134.950 92.998 L 135.959 92.767 L 140.035 98.861 L 142.741 97.051 L 137.846 89.732 L 136.132 81.095 L 132.939 81.729 L 134.366 88.920 L 133.489 89.471 L 116.394 93.378 L 136.768 73.004 L 166.451 77.884 Z M 111.596 98.336 L 123.824 95.542 L 113.202 102.212 L 113.273 102.325 L 113.081 102.325 L 107.449 102.325 L 111.431 98.343 L 111.431 98.343 L 111.567 98.207 L 111.596 98.336 Z M 108.921 95.833 L 108.921 95.833 L 105.078 99.676 L 105.078 94.323 L 105.078 94.130 L 105.191 94.201 L 111.861 83.579 L 109.102 95.652 L 108.921 95.833 Z M 101.530 94.323 L 101.530 99.758 L 97.609 95.837 L 97.739 95.807 L 94.945 83.579 L 101.531 94.067 L 101.531 94.323 Z M 99.079 102.324 L 93.726 102.324 L 93.534 102.324 L 93.605 102.211 L 82.983 95.541 L 95.055 98.300 L 99.079 102.324 Z M 93.725 105.873 L 98.881 105.873 L 95.054 109.700 L 82.981 112.459 L 93.469 105.873 L 93.725 105.873 Z M 101.530 108.242 L 101.530 113.677 L 101.530 113.933 L 94.944 124.421 L 97.738 112.193 L 97.608 112.163 L 101.530 108.242 Z M 105.078 113.677 L 105.078 108.324 L 108.921 112.167 L 108.921 112.167 L 109.102 112.348 L 111.861 124.421 L 105.191 113.799 L 105.078 113.870 L 105.078 113.677 Z M 111.567 109.794 L 111.431 109.658 L 111.431 109.658 L 107.646 105.873 L 113.081 105.873 L 113.337 105.873 L 123.825 112.459 L 111.597 109.665 L 111.567 109.794 Z M 129.518 40.952 L 134.359 70.396 L 114.107 90.648 L 117.931 73.914 L 118.482 73.037 L 125.673 74.464 L 126.307 71.271 L 117.670 69.557 L 110.351 64.662 L 108.541 67.368 L 114.635 71.444 L 114.404 72.453 L 105.078 87.304 L 105.078 58.490 L 129.518 40.952 Z M 77.287 40.952 L 101.530 58.349 L 101.530 86.990 L 92.401 72.453 L 92.170 71.444 L 98.264 67.368 L 96.454 64.662 L 89.135 69.557 L 80.498 71.271 L 81.132 74.464 L 88.323 73.037 L 88.874 73.914 L 92.781 91.009 L 72.407 70.635 L 77.287 40.952 Z M 40.354 77.884 L 69.798 73.043 L 90.050 93.295 L 73.316 89.471 L 72.439 88.920 L 73.866 81.729 L 70.673 81.095 L 68.959 89.732 L 64.064 97.051 L 66.770 98.861 L 70.846 92.767 L 71.855 92.998 L 86.706 102.324 L 57.893 102.324 L 40.354 77.884 Z M 40.354 130.116 L 57.751 105.873 L 86.392 105.873 L 71.855 115.002 L 70.846 115.233 L 66.770 109.139 L 64.064 110.949 L 68.959 118.268 L 70.673 126.905 L 73.866 126.271 L 72.439 119.080 L 73.316 118.529 L 90.050 114.705 L 69.798 134.957 L 40.354 130.116 Z M 77.287 167.048 L 72.407 137.365 L 92.781 116.991 L 88.874 134.086 L 88.323 134.963 L 81.132 133.536 L 80.498 136.729 L 89.135 138.443 L 96.454 143.338 L 98.264 140.632 L 92.170 136.556 L 92.401 135.547 L 101.530 121.010 L 101.530 149.651 L 77.287 167.048 Z M 129.518 167.048 L 105.078 149.509 L 105.078 120.696 L 114.404 135.547 L 114.635 136.556 L 108.541 140.632 L 110.351 143.338 L 117.670 138.443 L 126.307 136.729 L 125.673 133.536 L 118.482 134.963 L 117.931 134.086 L 114.107 117.352 L 134.359 137.604 L 129.518 167.048 Z M 166.451 130.116 L 136.768 134.996 L 116.394 114.622 L 133.489 118.529 L 134.366 119.080 L 132.939 126.271 L 136.132 126.905 L 137.846 118.268 L 142.741 110.949 L 140.035 109.139 L 135.959 115.233 L 134.950 115.002 L 120.413 105.873 L 149.054 105.873 L 166.451 130.116 Z " transform="matrix(0.13930347561836243, 0, 0, 0.13930347561836243, -0.3, -0.4)"/>
        </g>
      </g>
    </g>
  </g>
</svg>